<?xml version="1.0" encoding="UTF-8"?>
<svg id="Layer_1" data-name="Layer 1" xmlns="http://www.w3.org/2000/svg" viewBox="0 0 418.83 92.83">
  <defs>
    <style>
      .cls-1 {
        fill: #08213d;
        stroke-width: 0px;
      }
    </style>
  </defs>
  <g>
    <path class="cls-1" d="M150.56,29.81c-12.05,0-21.85,9.7-21.85,21.63s10.01,21.19,21.85,21.19c4.44,0,8.58-1.3,12.04-3.54l3.11,2.39h5.75v-5.4h-3.91l-.71-.55c3.5-3.8,5.63-8.82,5.63-14.31,0-11.81-9.83-21.41-21.9-21.41ZM154.36,55.93l-3.3,4.28,7.59,5.85c-2.41,1.3-5.17,2.04-8.1,2.04-9.18,0-16.93-7.63-16.93-16.66s7.73-17.09,16.88-17.09,17.04,7.59,17.04,16.93c0,4.38-1.71,8.36-4.49,11.35l-8.69-6.7Z"/>
    <path class="cls-1" d="M200.35,57.96c0,6.29-3.53,10.36-8.99,10.36-5.86,0-8.71-3.3-8.71-10.08v-17.14h-4.7v17.58c0,12.96,10.27,13.96,13.41,13.96,4,0,7.28-1.58,9.21-4.39v3.68h4.48v-30.83h-4.7v16.86Z"/>
    <path class="cls-1" d="M238.64,45.58c-2.59-3.35-6.66-5.25-11.34-5.25-9.27,0-16.54,7.07-16.54,16.1s7.26,16.21,16.54,16.21c4.56,0,8.71-1.93,11.34-5.23v4.51h4.7v-30.83h-4.7v4.48ZM227.29,68.32c-6.75,0-11.84-5.04-11.84-11.73s5.07-11.95,11.78-11.95,11.62,5.33,11.62,11.89-5.19,11.78-11.56,11.78Z"/>
    <rect class="cls-1" x="250.03" y="30.52" width="4.7" height="41.4"/>
    <rect class="cls-1" x="261.59" y="41.1" width="4.7" height="30.83"/>
    <rect class="cls-1" x="261.59" y="30.52" width="4.7" height="7.77"/>
    <polygon class="cls-1" points="281.35 30.52 276.65 30.52 276.65 41.1 270.35 41.1 270.35 45.41 276.65 45.41 276.65 71.92 281.35 71.92 281.35 45.41 288.52 45.41 288.52 41.1 281.35 41.1 281.35 30.52"/>
    <polygon class="cls-1" points="303.61 64.28 294.36 41.1 289.37 41.1 301.21 70.49 295.8 82.44 300.76 82.44 318.49 41.1 313.49 41.1 303.61 64.28"/>
    <polygon class="cls-1" points="328.13 30.52 323.21 30.52 323.21 71.92 344.89 71.92 344.89 67.39 328.13 67.39 328.13 30.52"/>
    <rect class="cls-1" x="348.18" y="30.52" width="4.7" height="7.77"/>
    <rect class="cls-1" x="348.18" y="41.1" width="4.7" height="30.83"/>
    <path class="cls-1" d="M373.32,40.33c-3.58,0-6.82,1.43-8.88,3.88v-3.11h-4.7v30.83h4.7v-17.41c0-5.9,3.59-9.86,8.93-9.86s8.88,3.98,8.88,10.14v17.14h4.7v-17.14c0-8.78-5.35-14.45-13.63-14.45Z"/>
    <polygon class="cls-1" points="406.03 56.64 418.19 41.1 412.16 41.1 398.73 58.69 398.73 30.52 394.03 30.52 394.03 71.92 398.73 71.92 398.73 65.94 403.13 60.35 412.77 71.92 418.83 71.92 406.03 56.64"/>
  </g>
  <g>
    <path class="cls-1" d="M93.96,47.2c-.83-.49-1.85-.49-2.69-.03l-36.76,20.62-36.76-20.62c-.84-.47-1.86-.46-2.69.03-.83.48-1.34,1.37-1.34,2.33v20.18c0,1,.55,1.91,1.42,2.38l38.06,20.41c.39.21.88.32,1.32.32s.88-.11,1.28-.32l38.06-20.41c.88-.47,1.42-1.39,1.42-2.38v-20.18c0-.96-.51-1.85-1.34-2.33Z"/>
    <path class="cls-1" d="M107.6,28.11L55.79.32c-.8-.43-1.76-.43-2.55,0L1.42,28.11c-.88.47-1.42,1.39-1.42,2.38s.55,1.91,1.42,2.38l51.81,27.79c.4.21.84.32,1.28.32s.88-.11,1.28-.32l51.81-27.79c.88-.47,1.42-1.39,1.42-2.38s-.55-1.91-1.42-2.38ZM54.51,55.26l6.46-21.11h-23.11c-1.99,0-3.6-1.61-3.6-3.6s1.61-3.6,3.6-3.6h23.11l-6.46-21.11,46.28,24.66-46.28,24.77Z"/>
  </g>
</svg>